<?xml version="1.0" encoding="UTF-8"?>
<svg width="105px" height="83px" viewBox="0 0 105 83" version="1.1" xmlns="http://www.w3.org/2000/svg" xmlns:xlink="http://www.w3.org/1999/xlink">
    <!-- Generator: Sketch 57.1 (83088) - https://sketch.com -->
    <title>dex-trade</title>
    <desc>Created with Sketch.</desc>
    <g id="Page-1" stroke="none" stroke-width="1" fill="none" fill-rule="evenodd">
        <g id="DEX-Copy-2" transform="translate(-462.000000, -1598.000000)">
            <g id="dex-trade" transform="translate(464.000000, 1600.000000)">
                <g transform="translate(1.000000, 0.000000)">
                    <polygon id="Fill-1" fill="#00E8B4" points="0 79.2478789 99.0598487 79.2478789 99.0598487 0 0 0"></polygon>
                    <polygon id="Fill-1-Copy" fill="#FFFFFF" points="0 20 99.0598487 20 99.0598487 0 0 0"></polygon>
                    <polygon id="Fill-2" fill="#000000" opacity="0.149999991" points="0 0 49.5299243 0 49.5299243 79.2041275 0 79.2041275"></polygon>
                    <path d="M10.9216541,6.92169533 C12.3943207,6.92169533 13.5883207,8.11569533 13.5883207,9.588362 C13.5883207,11.0610287 12.3943207,12.2550287 10.9216541,12.2550287 C9.44898739,12.2550287 8.25498739,11.0610287 8.25498739,9.588362 C8.25498739,8.11569533 9.44898739,6.92169533 10.9216541,6.92169533 Z" id="Stroke-6" fill="#262C40"></path>
                    <path d="M20.2549874,6.92169533 C21.7276541,6.92169533 22.9216541,8.11569533 22.9216541,9.588362 C22.9216541,11.0610287 21.7276541,12.2550287 20.2549874,12.2550287 C18.7823207,12.2550287 17.5883207,11.0610287 17.5883207,9.588362 C17.5883207,8.11569533 18.7823207,6.92169533 20.2549874,6.92169533 Z" id="Stroke-7" fill="#262C40"></path>
                    <path d="M29.5883207,6.92169533 C31.0609874,6.92169533 32.2549874,8.11569533 32.2549874,9.588362 C32.2549874,11.0610287 31.0609874,12.2550287 29.5883207,12.2550287 C28.1156541,12.2550287 26.9216541,11.0610287 26.9216541,9.588362 C26.9216541,8.11569533 28.1156541,6.92169533 29.5883207,6.92169533 Z" id="Stroke-8" fill="#262C40"></path>
                    <polyline id="Stroke-9" stroke="#262C40" stroke-width="3.5" stroke-linecap="square" stroke-linejoin="round" points="16.537097 48.7134141 24.9390344 48.7134141 30.6675934 62.4621081 45.3074135 37.1287747 59.6925717 56.4788872 68.858114 40.0568149 76.8782489 48.0769498 84.7704819 48.0769498"></polyline>
                    <path d="M0,19.8303784 L99.0598487,19.8303784" id="Stroke-10" stroke="#262C40" stroke-width="3" stroke-linecap="square"></path>
                </g>
                <rect id="Rectangle" stroke="#262C40" stroke-width="3" x="0" y="0" width="101" height="79" rx="3"></rect>
            </g>
        </g>
    </g>
</svg>