<?xml version="1.0" encoding="UTF-8"?>
<svg width="110px" height="110px" viewBox="0 0 110 110" version="1.1" xmlns="http://www.w3.org/2000/svg" xmlns:xlink="http://www.w3.org/1999/xlink">
    <!-- Generator: Sketch 57.1 (83088) - https://sketch.com -->
    <title>dex-verify</title>
    <desc>Created with Sketch.</desc>
    <g id="Page-1" stroke="none" stroke-width="1" fill="none" fill-rule="evenodd">
        <g id="DEX-Copy-2" transform="translate(-765.000000, -3051.000000)" fill="#262C40" fill-rule="nonzero">
            <path d="M868.249097,3091.56638 L859.909747,3091.56638 L859.909747,3105.1766 L847.864019,3105.1766 L847.864019,3091.56638 L827.611312,3091.56638 L827.611312,3078.0883 L820.860409,3078.0883 L820.860409,3072.93492 L827.611312,3072.93492 L827.611312,3066.06374 L834.362214,3066.06374 L834.362214,3057.73904 L827.611312,3057.73904 L827.611312,3051 L805.637786,3051 L805.637786,3059.3247 L819.271961,3059.3247 L819.271961,3064.47808 L812.388688,3064.47808 L812.388688,3079.67396 L819.271961,3079.67396 L819.271961,3091.56638 L812.388688,3091.56638 L812.388688,3098.43756 L800.475331,3098.43756 L800.475331,3091.56638 L792.135981,3091.56638 L792.135981,3098.43756 L786.973526,3098.43756 L786.973526,3091.56638 L771.750903,3091.56638 L771.750903,3098.43756 L765,3098.43756 L765,3106.76226 L773.33935,3106.76226 L773.33935,3100.02322 L785.385078,3100.02322 L785.385078,3106.76226 L792.135981,3106.76226 L792.135981,3120.24034 L800.475331,3120.24034 L800.475331,3106.76226 L813.977136,3106.76226 L813.977136,3099.89108 L839.524669,3099.89108 L839.524669,3105.1766 L819.271961,3105.1766 L819.271961,3113.5013 L826.022864,3113.5013 L826.022864,3126.97938 L841.113117,3126.97938 L841.113117,3118.65468 L834.362214,3118.65468 L834.362214,3113.5013 L861.498195,3113.5013 L861.498195,3106.76226 L866.66065,3106.76226 L866.66065,3113.5013 L875,3113.5013 L875,3105.1766 L868.249097,3105.1766 L868.249097,3091.56638 Z M814.055537,3119.04124 L805.824742,3119.04124 L805.824742,3140.87558 L812.487767,3140.87558 L812.487767,3146.00533 L805.824742,3146.00533 L805.824742,3154.29186 L819.281439,3154.29186 L819.281439,3161 L827.512233,3161 L827.512233,3154.29186 L834.175258,3154.29186 L834.175258,3146.00533 L825.944463,3146.00533 L825.944463,3152.71347 L820.849209,3152.71347 L820.849209,3140.87558 L834.175258,3140.87558 L834.175258,3132.45752 L814.055537,3132.45752 L814.055537,3119.04124 Z M765,3120.17526 L772.938144,3120.17526 L772.938144,3112.23711 L765,3112.23711 L765,3120.17526 Z M772.47692,3086.15464 L792.67772,3086.15464 C794.689065,3086.15464 796.438034,3085.41133 797.924681,3083.92468 C799.411327,3082.43803 800.154639,3080.68906 800.154639,3078.67772 L800.154639,3058.47692 C800.154639,3056.46557 799.411327,3054.7166 797.924681,3053.22996 C796.438034,3051.74331 794.689065,3051 792.67772,3051 L772.47692,3051 C770.465574,3051 768.716605,3051.74331 767.229958,3053.22996 C765.743312,3054.7166 765,3056.46557 765,3058.47692 L765,3078.67772 C765,3080.68906 765.743312,3082.43803 767.229958,3083.92468 C768.716605,3085.41133 770.465574,3086.15464 772.47692,3086.15464 Z M772.938144,3078.21649 L772.938144,3058.93814 L792.216495,3058.93814 L792.216495,3078.21649 L772.938144,3078.21649 Z M778.608247,3072.54639 L786.546392,3072.54639 L786.546392,3064.60825 L778.608247,3064.60825 L778.608247,3072.54639 Z M867.52308,3051 L847.32228,3051 C845.310935,3051 843.561966,3051.74331 842.075319,3053.22996 C840.588673,3054.7166 839.845361,3056.46557 839.845361,3058.47692 L839.845361,3078.67772 C839.845361,3080.68906 840.588673,3082.43803 842.075319,3083.92468 C843.561966,3085.41133 845.310935,3086.15464 847.32228,3086.15464 L867.52308,3086.15464 C869.621875,3086.15464 871.392707,3085.41133 872.835629,3083.92468 C874.27855,3082.43803 875,3080.68906 875,3078.67772 L875,3058.47692 C875,3056.46557 874.27855,3054.7166 872.835629,3053.22996 C871.392707,3051.74331 869.621875,3051 867.52308,3051 Z M867.061856,3058.93814 L867.061856,3078.21649 L847.783505,3078.21649 L847.783505,3058.93814 L867.061856,3058.93814 Z M853.453608,3072.54639 L861.391753,3072.54639 L861.391753,3064.60825 L853.453608,3064.60825 L853.453608,3072.54639 Z M867.52308,3125.84536 L847.32228,3125.84536 C845.310935,3125.84536 843.561966,3126.58867 842.075319,3128.07532 C840.588673,3129.56197 839.845361,3131.31094 839.845361,3133.32228 L839.845361,3153.52308 C839.845361,3155.62188 840.588673,3157.39271 842.075319,3158.83563 C843.561966,3160.27855 845.310935,3161 847.32228,3161 L867.52308,3161 C869.621875,3161 871.392707,3160.27855 872.835629,3158.83563 C874.27855,3157.39271 875,3155.62188 875,3153.52308 L875,3133.32228 C875,3131.31094 874.27855,3129.56197 872.835629,3128.07532 C871.392707,3126.58867 869.621875,3125.84536 867.52308,3125.84536 Z M867.061856,3133.78351 L867.061856,3153.06186 L847.783505,3153.06186 L847.783505,3133.78351 L867.061856,3133.78351 Z M853.453608,3147.39175 L861.391753,3147.39175 L861.391753,3139.45361 L853.453608,3139.45361 L853.453608,3147.39175 Z M792.67772,3125.84536 L772.47692,3125.84536 C770.465574,3125.84536 768.716605,3126.58867 767.229958,3128.07532 C765.743312,3129.56197 765,3131.31094 765,3133.32228 L765,3153.52308 C765,3155.62188 765.743312,3157.39271 767.229958,3158.83563 C768.716605,3160.27855 770.465574,3161 772.47692,3161 L792.67772,3161 C794.689065,3161 796.438034,3160.27855 797.924681,3158.83563 C799.411327,3157.39271 800.154639,3155.62188 800.154639,3153.52308 L800.154639,3133.32228 C800.154639,3131.31094 799.411327,3129.56197 797.924681,3128.07532 C796.438034,3126.58867 794.689065,3125.84536 792.67772,3125.84536 Z M792.216495,3133.78351 L792.216495,3153.06186 L772.938144,3153.06186 L772.938144,3133.78351 L792.216495,3133.78351 Z M778.608247,3147.39175 L778.608247,3139.45361 L786.546392,3139.45361 L786.546392,3147.39175 L778.608247,3147.39175 Z" id="dex-verify"></path>
        </g>
    </g>
</svg>