<?xml version="1.0" encoding="UTF-8"?>
<svg width="122px" height="88px" viewBox="0 0 122 88" version="1.1" xmlns="http://www.w3.org/2000/svg" xmlns:xlink="http://www.w3.org/1999/xlink">
    <!-- Generator: Sketch 57.1 (83088) - https://sketch.com -->
    <title>dex-connect-wallet</title>
    <desc>Created with Sketch.</desc>
    <g id="Page-1" stroke="none" stroke-width="1" fill="none" fill-rule="evenodd">
        <g id="DEX-Copy" transform="translate(-134.000000, -1938.000000)">
            <g id="dex-connect-wallet" transform="translate(135.000000, 1940.000000)">
                <g id="wallet-2664_d53c5699-a233-4e3d-96bf-21242e985909" transform="translate(43.951049, 40.500000) scale(-1, 1) translate(-43.951049, -40.500000) translate(0.451049, 0.000000)">
                    <path d="M86.5384615,53.3653846 C86.6294782,56.4082771 84.939275,59.2252825 82.2115385,60.5769231 L31.7307692,80.1923077 C27.4038462,82.0673077 25.9615385,78.75 25.9615385,76.4423077 L25.9615385,27.4038462 C25.7936301,24.3413995 27.507287,21.4853046 30.2884615,20.1923077 L79.3269231,1.15384615 C82.5,1.66533454e-15 86.5384615,1.875 86.5384615,4.32692308 L86.5384615,53.3653846 Z" id="Path" fill="#00E8B4" fill-rule="nonzero"></path>
                    <path d="M30.2884615,20.1923077 L79.1826923,1.15384615 C82.3557692,0 86.3942308,1.875 86.3942308,4.32692308 C86.3942308,1.93722945 84.4570013,0 82.0673077,0 L4.32692308,0 C1.93722945,0 0,1.93722945 0,4.32692308 L0,56.25 C0,58.6396936 1.93722945,60.5769231 4.32692308,60.5769231 L25.9615385,60.5769231 L25.9615385,27.4038462 C25.7936301,24.3413995 27.507287,21.4853046 30.2884615,20.1923077 Z" id="Path" fill="#00E8B4" fill-rule="nonzero"></path>
                    <path d="M30.2884615,20.1923077 L79.1826923,1.15384615 C82.3557692,0 86.3942308,1.875 86.3942308,4.32692308 C86.3942308,1.93722945 84.4570013,0 82.0673077,0 L4.32692308,0 C1.93722945,0 0,1.93722945 0,4.32692308 L0,56.25 C0,58.6396936 1.93722945,60.5769231 4.32692308,60.5769231 L25.9615385,60.5769231 L25.9615385,27.4038462 C25.7936301,24.3413995 27.507287,21.4853046 30.2884615,20.1923077 Z" id="Path" fill="#262C40" fill-rule="nonzero" opacity="0.150063"></path>
                    <circle id="Oval" fill="#FFFFFF" fill-rule="nonzero" cx="43.2692308" cy="46.4423077" r="5.76923077"></circle>
                    <path d="M25.5157343,60.5769231 L4.32692308,60.5769231 C1.93722945,60.5769231 0,58.6396936 0,56.25 L0,4.32692308 C0,1.93722945 1.93722945,0 4.32692308,0 L82.2115385,0 C84.6012321,0 86.5384615,1.93722945 86.5384615,4.32692308 M14.4230769,14.4230769 L45.1442308,14.4230769 M14.4230769,31.7307692 L25.9615385,31.7307692" id="Shape" stroke="#262C40" stroke-width="3" stroke-linecap="round" stroke-linejoin="round"></path>
                    <path d="M86.5384615,53.3653846 C86.6294782,56.4082771 84.939275,59.2252825 82.2115385,60.5769231 L31.7307692,80.1923077 C27.4038462,82.0673077 25.9615385,78.75 25.9615385,76.4423077 L25.9615385,27.4038462 C25.7936301,24.3413995 27.507287,21.4853046 30.2884615,20.1923077 L79.3269231,1.15384615 C82.5,1.66533454e-15 86.5384615,1.875 86.5384615,4.32692308 L86.5384615,53.3653846 Z" id="Path" stroke="#262C40" stroke-width="3" stroke-linecap="round" stroke-linejoin="round"></path>
                    <circle id="Oval" stroke="#262C40" stroke-width="3" stroke-linecap="round" stroke-linejoin="round" cx="43.2692308" cy="46.4423077" r="5.76923077"></circle>
                </g>
                <g id="Group-8" transform="translate(70.269231, 35.538462)">
                    <path d="M24.1645325,-3.55271368e-14 C37.5102011,-3.55271368e-14 48.329065,10.818864 48.329065,24.1645325 C48.329065,37.5102011 37.5102011,48.329065 24.1645325,48.329065 C10.818864,48.329065 -1.4033219e-12,37.5102011 -1.4033219e-12,24.1645325 C-1.4033219e-12,10.818864 10.818864,-3.55271368e-14 24.1645325,-3.55271368e-14" id="Fill-9" fill="#FFFFFF"></path>
                    <g id="Asset-54" transform="translate(16.730769, 10.461538)" fill-rule="nonzero">
                        <polygon id="Path" fill="#242828" points="4 0 4 8.66684 0 13 0 4.33316"></polygon>
                        <path d="M16.9997439,17.3108986 C17.0233876,20.4071747 15.4085364,23.2785697 12.7689917,24.8336727 C10.1294469,26.3887758 6.87055305,26.3887758 4.23100832,24.8336727 C1.59146358,23.2785697 -0.0233875995,20.4071747 0.000256117691,17.3108986 L0.000256117691,13 L4.25000056,13 L4.25000056,17.3108986 C4.23324595,18.86238 5.03960696,20.3033363 6.36144697,21.0840247 C7.68328697,21.8647132 9.31671303,21.8647132 10.638553,21.0840247 C11.960393,20.3033363 12.7667541,18.86238 12.7499994,17.3108986 L16.9997439,17.3108986 Z" id="Path" fill="#242828"></path>
                        <polygon id="Path" fill="#00E8B5" points="17 9 12.7501275 13 0 13 4.2498725 9"></polygon>
                    </g>
                    <path d="M24.1645325,48.329065 C10.818864,48.329065 -7.03437308e-13,37.5102011 -7.03437308e-13,24.1645325 C-7.03437308e-13,10.818864 10.818864,-3.90798505e-14 24.1645325,-3.90798505e-14 L24.1645325,48.329065 Z" id="Fill-11" fill="#000000" opacity="0.149999991"></path>
                    <path d="M24.1645325,-3.90798505e-14 C37.5102011,-3.90798505e-14 48.329065,10.818864 48.329065,24.1645325 C48.329065,37.5102011 37.5102011,48.329065 24.1645325,48.329065 C10.818864,48.329065 -1.4033219e-12,37.5102011 -1.4033219e-12,24.1645325 C-1.4033219e-12,10.818864 10.818864,-3.90798505e-14 24.1645325,-3.90798505e-14 Z" id="Stroke-15" stroke="#262C40" stroke-width="3" stroke-linecap="square"></path>
                </g>
            </g>
        </g>
    </g>
</svg>