<?xml version="1.0" encoding="UTF-8"?>
<svg width="122px" height="88px" viewBox="0 0 122 88" version="1.1" xmlns="http://www.w3.org/2000/svg" xmlns:xlink="http://www.w3.org/1999/xlink">
    <!-- Generator: Sketch 57.1 (83088) - https://sketch.com -->
    <title>dex-connect-wallet</title>
    <desc>Created with Sketch.</desc>
    <defs>
        <polygon id="path-1" points="0 -9.15385745e-05 20.061594 -9.15385745e-05 20.061594 25.7493433 0 25.7493433"></polygon>
    </defs>
    <g id="Page-1" stroke="none" stroke-width="1" fill="none" fill-rule="evenodd">
        <g id="DEX-Copy-2" transform="translate(-134.000000, -1598.000000)">
            <g id="dex-connect-wallet" transform="translate(135.000000, 1600.000000)">
                <g id="wallet-2664_d53c5699-a233-4e3d-96bf-21242e985909" transform="translate(43.951049, 40.500000) scale(-1, 1) translate(-43.951049, -40.500000) translate(0.451049, 0.000000)">
                    <path d="M86.5384615,53.3653846 C86.6294782,56.4082771 84.939275,59.2252825 82.2115385,60.5769231 L31.7307692,80.1923077 C27.4038462,82.0673077 25.9615385,78.75 25.9615385,76.4423077 L25.9615385,27.4038462 C25.7936301,24.3413995 27.507287,21.4853046 30.2884615,20.1923077 L79.3269231,1.15384615 C82.5,1.66533454e-15 86.5384615,1.875 86.5384615,4.32692308 L86.5384615,53.3653846 Z" id="Path" fill="#00E8B4" fill-rule="nonzero"></path>
                    <path d="M30.2884615,20.1923077 L79.1826923,1.15384615 C82.3557692,0 86.3942308,1.875 86.3942308,4.32692308 C86.3942308,1.93722945 84.4570013,0 82.0673077,0 L4.32692308,0 C1.93722945,0 0,1.93722945 0,4.32692308 L0,56.25 C0,58.6396936 1.93722945,60.5769231 4.32692308,60.5769231 L25.9615385,60.5769231 L25.9615385,27.4038462 C25.7936301,24.3413995 27.507287,21.4853046 30.2884615,20.1923077 Z" id="Path" fill="#00E8B4" fill-rule="nonzero"></path>
                    <path d="M30.2884615,20.1923077 L79.1826923,1.15384615 C82.3557692,0 86.3942308,1.875 86.3942308,4.32692308 C86.3942308,1.93722945 84.4570013,0 82.0673077,0 L4.32692308,0 C1.93722945,0 0,1.93722945 0,4.32692308 L0,56.25 C0,58.6396936 1.93722945,60.5769231 4.32692308,60.5769231 L25.9615385,60.5769231 L25.9615385,27.4038462 C25.7936301,24.3413995 27.507287,21.4853046 30.2884615,20.1923077 Z" id="Path" fill="#262C40" fill-rule="nonzero" opacity="0.150063"></path>
                    <circle id="Oval" fill="#FFFFFF" fill-rule="nonzero" cx="43.2692308" cy="46.4423077" r="5.76923077"></circle>
                    <path d="M25.5157343,60.5769231 L4.32692308,60.5769231 C1.93722945,60.5769231 0,58.6396936 0,56.25 L0,4.32692308 C0,1.93722945 1.93722945,0 4.32692308,0 L82.2115385,0 C84.6012321,0 86.5384615,1.93722945 86.5384615,4.32692308 M14.4230769,14.4230769 L45.1442308,14.4230769 M14.4230769,31.7307692 L25.9615385,31.7307692" id="Shape" stroke="#262C40" stroke-width="3" stroke-linecap="round" stroke-linejoin="round"></path>
                    <path d="M86.5384615,53.3653846 C86.6294782,56.4082771 84.939275,59.2252825 82.2115385,60.5769231 L31.7307692,80.1923077 C27.4038462,82.0673077 25.9615385,78.75 25.9615385,76.4423077 L25.9615385,27.4038462 C25.7936301,24.3413995 27.507287,21.4853046 30.2884615,20.1923077 L79.3269231,1.15384615 C82.5,1.66533454e-15 86.5384615,1.875 86.5384615,4.32692308 L86.5384615,53.3653846 Z" id="Path" stroke="#262C40" stroke-width="3" stroke-linecap="round" stroke-linejoin="round"></path>
                    <circle id="Oval" stroke="#262C40" stroke-width="3" stroke-linecap="round" stroke-linejoin="round" cx="43.2692308" cy="46.4423077" r="5.76923077"></circle>
                </g>
                <g id="Group-8" transform="translate(70.269231, 35.538462)">
                    <path d="M24.1645325,-3.55271368e-14 C37.5102011,-3.55271368e-14 48.329065,10.818864 48.329065,24.1645325 C48.329065,37.5102011 37.5102011,48.329065 24.1645325,48.329065 C10.818864,48.329065 -1.4033219e-12,37.5102011 -1.4033219e-12,24.1645325 C-1.4033219e-12,10.818864 10.818864,-3.55271368e-14 24.1645325,-3.55271368e-14" id="Fill-9" fill="#FFFFFF"></path>
                    <g id="Group-3" transform="translate(12.700476, 11.786087)">
                        <mask id="mask-2" fill="white">
                            <use xlink:href="#path-1"></use>
                        </mask>
                        <g id="Clip-2"></g>
                        <path d="M9.42481164,24.8737769 C10.6431901,25.4550468 11.9347993,25.749801 13.2621087,25.749801 C15.2594804,25.749801 17.2248136,25.0477002 18.7974463,23.7734832 C19.0089004,23.6023061 19.2212699,23.4183135 19.4299778,23.2279133 C20.2227019,22.5001816 20.2767096,21.2653263 19.5508088,20.4716868 C18.8249079,19.6789628 17.5882217,19.6258704 16.7945823,20.3517713 C16.644459,20.4899945 16.4915896,20.6208947 16.3423817,20.7417256 C14.8319952,21.9674271 12.8739851,22.1962736 11.1027137,21.3522879 C9.30214995,20.4936561 8.22657169,18.7947001 8.22657169,16.8073977 L8.22657169,7.85767124 L18.3067995,7.85767124 C19.2633776,7.85767124 20.0423709,7.07959336 20.0423709,6.12301525 C20.0423709,5.16552176 19.2633776,4.38652849 18.3067995,4.38652849 L8.22657169,4.38652849 L8.22657169,1.95068702 C8.22657169,0.875108773 7.35146292,-4.61852778e-14 6.27588467,-4.61852778e-14 C5.20030642,-4.61852778e-14 4.32519765,0.875108773 4.32519765,1.95068702 L4.32519765,4.38652849 L1.73557137,4.38652849 C0.778993269,4.38652849 2.80664381e-13,5.16552176 2.80664381e-13,6.12301525 C2.80664381e-13,7.07959336 0.778993269,7.85767124 1.73557137,7.85767124 L4.32519765,7.85767124 L4.32519765,16.8073977 C4.32519765,20.2831173 6.27954621,23.3734596 9.42481164,24.8737769" id="Fill-1" fill="#262C40" mask="url(#mask-2)"></path>
                    </g>
                    <path d="M24.1645325,48.329065 C10.818864,48.329065 -7.03437308e-13,37.5102011 -7.03437308e-13,24.1645325 C-7.03437308e-13,10.818864 10.818864,-3.90798505e-14 24.1645325,-3.90798505e-14 L24.1645325,48.329065 Z" id="Fill-11" fill="#000000" opacity="0.149999991"></path>
                    <path d="M24.1645325,-3.90798505e-14 C37.5102011,-3.90798505e-14 48.329065,10.818864 48.329065,24.1645325 C48.329065,37.5102011 37.5102011,48.329065 24.1645325,48.329065 C10.818864,48.329065 -1.4033219e-12,37.5102011 -1.4033219e-12,24.1645325 C-1.4033219e-12,10.818864 10.818864,-3.90798505e-14 24.1645325,-3.90798505e-14 Z" id="Stroke-15" stroke="#262C40" stroke-width="3" stroke-linecap="square"></path>
                </g>
            </g>
        </g>
    </g>
</svg>