<?xml version="1.0" encoding="UTF-8"?>
<svg width="122px" height="106px" viewBox="0 0 122 106" version="1.1" xmlns="http://www.w3.org/2000/svg" xmlns:xlink="http://www.w3.org/1999/xlink">
    <!-- Generator: Sketch 57.1 (83088) - https://sketch.com -->
    <title>dex-real-time</title>
    <desc>Created with Sketch.</desc>
    <defs>
        <polygon id="path-1" points="0 106 122 106 122 0 0 0"></polygon>
    </defs>
    <g id="Page-1" stroke="none" stroke-width="1" fill="none" fill-rule="evenodd">
        <g id="DEX-Copy-2" transform="translate(-135.000000, -2220.000000)">
            <g id="dex-real-time" transform="translate(135.000000, 2220.000000)">
                <path d="M88.9999,41 C106.6729,41 120.9999,55.327 120.9999,73 C120.9999,90.673 106.6729,105 88.9999,105 C71.3269,105 56.9999,90.673 56.9999,73 C56.9999,55.327 71.3269,41 88.9999,41" id="Fill-1" fill="#78D1F4"></path>
                <path d="M88.9999,41 C106.6729,41 120.9999,55.327 120.9999,73 C120.9999,90.673 106.6729,105 88.9999,105 C71.3269,105 56.9999,90.673 56.9999,73 C56.9999,55.327 71.3269,41 88.9999,41" id="Fill-3" fill="#00E8B4"></path>
                <mask id="mask-2" fill="white">
                    <use xlink:href="#path-1"></use>
                </mask>
                <g id="Clip-6"></g>
                <path d="M88.9999,41 C106.6729,41 120.9999,55.327 120.9999,73 C120.9999,90.673 106.6729,105 88.9999,105 C71.3269,105 56.9999,90.673 56.9999,73 C56.9999,55.327 71.3269,41 88.9999,41 Z" id="Stroke-7" stroke="#FFFFFF" stroke-width="3" stroke-linecap="round" stroke-linejoin="round" mask="url(#mask-2)"></path>
                <polyline id="Stroke-8" stroke="#FFFFFF" stroke-width="4" stroke-linecap="round" stroke-linejoin="round" mask="url(#mask-2)" points="86.9999 59 86.9999 79 102.9999 79"></polyline>
                <path d="M12.9999,10 C14.6561847,10 15.9999,11.3437153 15.9999,13 C15.9999,14.6562847 14.6561847,16 12.9999,16 C11.3436153,16 9.9999,14.6562847 9.9999,13 C9.9999,11.3437153 11.3436153,10 12.9999,10 Z" id="Stroke-9" stroke="#00E8B4" stroke-width="2" stroke-linecap="round" stroke-linejoin="round" mask="url(#mask-2)"></path>
                <path d="M26.9999,10 C28.6561847,10 29.9999,11.3437153 29.9999,13 C29.9999,14.6562847 28.6561847,16 26.9999,16 C25.3436153,16 23.9999,14.6562847 23.9999,13 C23.9999,11.3437153 25.3436153,10 26.9999,10 Z" id="Stroke-10" stroke="#00E8B4" stroke-width="2" stroke-linecap="round" stroke-linejoin="round" mask="url(#mask-2)"></path>
                <path d="M40.9999,10 C42.6561847,10 43.9999,11.3437153 43.9999,13 C43.9999,14.6562847 42.6561847,16 40.9999,16 C39.3436153,16 37.9999,14.6562847 37.9999,13 C37.9999,11.3437153 39.3436153,10 40.9999,10 Z" id="Stroke-11" stroke="#00E8B4" stroke-width="2" stroke-linecap="round" stroke-linejoin="round" mask="url(#mask-2)"></path>
                <path d="M0.9999,89 L60.9999,89 L0.9999,89 Z M104.9999,45 L104.9999,25 L104.9999,45 Z M104.9999,1 L104.9999,25 L0.9999,25 L0.9999,1 L104.9999,1 Z" id="Stroke-12" stroke="#FFFFFF" stroke-width="3" stroke-linecap="round" stroke-linejoin="round" mask="url(#mask-2)"></path>
            </g>
        </g>
    </g>
</svg>