<?xml version="1.0" encoding="UTF-8"?>
<svg width="270px" height="71px" viewBox="0 0 270 71" version="1.1" xmlns="http://www.w3.org/2000/svg" xmlns:xlink="http://www.w3.org/1999/xlink">
    <!-- Generator: Sketch 57.1 (83088) - https://sketch.com -->
    <title>dex-logo-black</title>
    <desc>Created with Sketch.</desc>
    <defs>
        <polygon id="path-1" points="0 71.5909091 269.852727 71.5909091 269.852727 0.752727273 0 0.752727273"></polygon>
    </defs>
    <g id="Page-1" stroke="none" stroke-width="1" fill="none" fill-rule="evenodd">
        <g id="DEX-Copy-2" transform="translate(-135.000000, -3441.000000)">
            <g id="dex-logo-black" transform="translate(135.000000, 3440.000000)">
                <polygon id="Fill-1" fill="#262C40" points="91.3273977 24.2292273 111.414784 24.2292273 111.414784 27.9826364 103.526489 27.9826364 103.526489 49.0436591 99.1819432 49.0436591 99.1819432 27.9826364 91.3273977 27.9826364"></polygon>
                <g id="Group-19" transform="translate(0.000000, 0.269795)">
                    <path d="M118.122136,46.1318523 C119.001682,46.1318523 119.766682,45.9467386 120.416114,45.5765114 C121.064523,45.2062841 121.597364,44.7194659 122.014636,44.1160568 C122.431909,43.5136705 122.738727,42.836625 122.935091,42.0838977 C123.131455,41.3311705 123.230659,40.5600341 123.230659,39.7725341 C123.230659,39.0075341 123.131455,38.2425341 122.935091,37.4785568 C122.738727,36.7135568 122.431909,36.0365114 122.014636,35.445375 C121.597364,34.8552614 121.064523,34.3745795 120.416114,34.0033295 C119.766682,33.6320795 119.001682,33.4479886 118.122136,33.4479886 C117.241568,33.4479886 116.477591,33.6320795 115.829182,34.0033295 C115.17975,34.3745795 114.646909,34.8552614 114.229636,35.445375 C113.812364,36.0365114 113.505545,36.7135568 113.309182,37.4785568 C113.111795,38.2425341 113.013614,39.0075341 113.013614,39.7725341 C113.013614,40.5600341 113.111795,41.3311705 113.309182,42.0838977 C113.505545,42.836625 113.812364,43.5136705 114.229636,44.1160568 C114.646909,44.7194659 115.17975,45.2062841 115.829182,45.5765114 C116.477591,45.9467386 117.241568,46.1318523 118.122136,46.1318523 M118.122136,49.260375 C116.685205,49.260375 115.405773,49.0220795 114.281795,48.5475341 C113.157818,48.0719659 112.208727,47.4184432 111.432477,46.5838977 C110.655205,45.750375 110.065091,44.7532159 109.660091,43.5954886 C109.254068,42.4367386 109.051568,41.1624205 109.051568,39.7725341 C109.051568,38.4051477 109.254068,37.1431023 109.660091,35.9843523 C110.065091,34.8256023 110.655205,33.8294659 111.432477,32.9949205 C112.208727,32.1613977 113.157818,31.5068523 114.281795,31.0312841 C115.405773,30.5567386 116.685205,30.3194659 118.122136,30.3194659 C119.558045,30.3194659 120.8385,30.5567386 121.962477,31.0312841 C123.086455,31.5068523 124.035545,32.1613977 124.811795,32.9949205 C125.588045,33.8294659 126.179182,34.8256023 126.584182,35.9843523 C126.990205,37.1431023 127.192705,38.4051477 127.192705,39.7725341 C127.192705,41.1624205 126.990205,42.4367386 126.584182,43.5954886 C126.179182,44.7532159 125.588045,45.750375 124.811795,46.5838977 C124.035545,47.4184432 123.086455,48.0719659 121.962477,48.5475341 C120.8385,49.0220795 119.558045,49.260375 118.122136,49.260375" id="Fill-2" fill="#262C40"></path>
                    <path d="M130.493659,30.8059773 L134.247068,30.8059773 L134.247068,33.3075682 L134.350364,33.3075682 C134.652068,32.8688182 134.977295,32.4627955 135.325023,32.0915455 C135.671727,31.7223409 136.059341,31.4083636 136.487864,31.1537045 C136.916386,30.8990455 137.409341,30.6965455 137.965705,30.5451818 C138.522068,30.3958636 139.159227,30.3191591 139.877182,30.3191591 C140.965364,30.3191591 141.978886,30.5625682 142.91775,31.0493864 C143.855591,31.5362045 144.522409,32.2889318 144.917182,33.3075682 C145.588091,32.382 146.364341,31.6517727 147.244909,31.1189318 C148.124455,30.5860909 149.224909,30.3191591 150.54525,30.3191591 C152.445477,30.3191591 153.922295,30.7834773 154.976727,31.7100682 C156.031159,32.6366591 156.557864,34.1891591 156.557864,36.3665455 L156.557864,48.77325 L152.596841,48.77325 L152.596841,38.2780227 C152.596841,37.5600682 152.573318,36.9055227 152.527295,36.3143864 C152.48025,35.7242727 152.347295,35.2149545 152.127409,34.7854091 C151.9065,34.3568864 151.576159,34.0265455 151.137409,33.7954091 C150.696614,33.56325 150.094227,33.4476818 149.33025,33.4476818 C147.986386,33.4476818 147.01275,33.8639318 146.410364,34.6984773 C145.807977,35.532 145.507295,36.71325 145.507295,38.2422273 L145.507295,48.77325 L141.54525,48.77325 L141.54525,37.2348409 C141.54525,35.9840455 141.319227,35.0410909 140.868205,34.4029091 C140.415136,33.7667727 139.58775,33.4476818 138.382977,33.4476818 C137.872636,33.4476818 137.379682,33.552 136.906159,33.7606364 C136.430591,33.96825 136.013318,34.2699545 135.654341,34.6626818 C135.294341,35.0574545 135.005932,35.5442727 134.785023,36.1231364 C134.565136,36.7030227 134.455705,37.3626818 134.455705,38.1041591 L134.455705,48.77325 L130.493659,48.77325 L130.493659,30.8059773 Z" id="Fill-4" fill="#262C40"></path>
                    <path d="M168.965795,46.1318523 C169.845341,46.1318523 170.609318,45.9467386 171.25875,45.5765114 C171.907159,45.2062841 172.44,44.7194659 172.858295,44.1160568 C173.274545,43.5136705 173.582386,42.836625 173.77875,42.0838977 C173.975114,41.3311705 174.074318,40.5600341 174.074318,39.7725341 C174.074318,39.0075341 173.975114,38.2425341 173.77875,37.4785568 C173.582386,36.7135568 173.274545,36.0365114 172.858295,35.445375 C172.44,34.8552614 171.907159,34.3745795 171.25875,34.0033295 C170.609318,33.6320795 169.845341,33.4479886 168.965795,33.4479886 C168.085227,33.4479886 167.320227,33.6320795 166.671818,34.0033295 C166.022386,34.3745795 165.490568,34.8552614 165.072273,35.445375 C164.656023,36.0365114 164.348182,36.7135568 164.151818,37.4785568 C163.955455,38.2425341 163.857273,39.0075341 163.857273,39.7725341 C163.857273,40.5600341 163.955455,41.3311705 164.151818,42.0838977 C164.348182,42.836625 164.656023,43.5136705 165.072273,44.1160568 C165.490568,44.7194659 166.022386,45.2062841 166.671818,45.5765114 C167.320227,45.9467386 168.085227,46.1318523 168.965795,46.1318523 M168.965795,49.260375 C167.528864,49.260375 166.248409,49.0220795 165.125455,48.5475341 C164.001477,48.0719659 163.051364,47.4184432 162.275114,46.5838977 C161.498864,45.750375 160.907727,44.7532159 160.50375,43.5954886 C160.097727,42.4367386 159.895227,41.1624205 159.895227,39.7725341 C159.895227,38.4051477 160.097727,37.1431023 160.50375,35.9843523 C160.907727,34.8256023 161.498864,33.8294659 162.275114,32.9949205 C163.051364,32.1613977 164.001477,31.5068523 165.125455,31.0312841 C166.248409,30.5567386 167.528864,30.3194659 168.965795,30.3194659 C170.401705,30.3194659 171.681136,30.5567386 172.806136,31.0312841 C173.930114,31.5068523 174.878182,32.1613977 175.655455,32.9949205 C176.431705,33.8294659 177.021818,34.8256023 177.427841,35.9843523 C177.832841,37.1431023 178.036364,38.4051477 178.036364,39.7725341 C178.036364,41.1624205 177.832841,42.4367386 177.427841,43.5954886 C177.021818,44.7532159 176.431705,45.750375 175.655455,46.5838977 C174.878182,47.4184432 173.930114,48.0719659 172.806136,48.5475341 C171.681136,49.0220795 170.401705,49.260375 168.965795,49.260375" id="Fill-6" fill="#262C40"></path>
                    <path d="M198.643909,31.8486477 C198.457773,31.1306932 198.203114,30.4700114 197.879932,29.867625 C197.555727,29.2662614 197.137432,28.7446705 196.628114,28.303875 C196.118795,27.8641023 195.521523,27.5225114 194.838341,27.2780795 C194.155159,27.0356932 193.361523,26.9139886 192.457432,26.9139886 C191.137091,26.9139886 189.995727,27.1809205 189.034364,27.7127386 C188.073,28.2466023 187.290614,28.9584205 186.68925,29.8502386 C186.086864,30.7430795 185.639932,31.7555795 185.351523,32.8918295 C185.061068,34.0270568 184.916864,35.1847841 184.916864,36.3660341 C184.916864,37.5483068 185.061068,38.7070568 185.351523,39.8412614 C185.639932,40.9775114 186.086864,41.9910341 186.68925,42.8828523 C187.290614,43.7746705 188.073,44.4864886 189.034364,45.0203523 C189.995727,45.5531932 191.137091,45.8191023 192.457432,45.8191023 C193.431068,45.8191023 194.288114,45.651375 195.029591,45.3159205 C195.771068,44.9804659 196.407205,44.5161477 196.941068,43.9260341 C197.473909,43.333875 197.891182,42.6455795 198.192886,41.8570568 C198.493568,41.0705795 198.690955,40.2237614 198.783,39.3206932 L203.023227,39.3206932 C202.930159,40.8036477 202.611068,42.1587614 202.068,43.3860341 C201.521864,44.6143295 200.787545,45.6748977 199.859932,46.5667159 C198.933341,47.4585341 197.845159,48.148875 196.593341,48.6346705 C195.341523,49.1214886 193.963909,49.363875 192.457432,49.363875 C190.60425,49.363875 188.942318,49.0222841 187.470614,48.3391023 C185.999932,47.6559205 184.75425,46.7231932 183.735614,45.5419432 C182.714932,44.3596705 181.933568,42.9820568 181.389477,41.4060341 C180.844364,39.8310341 180.572318,38.1506932 180.572318,36.3660341 C180.572318,34.6059205 180.844364,32.9368295 181.389477,31.3618295 C181.933568,29.7868295 182.714932,28.4081932 183.735614,27.2259205 C184.75425,26.0446705 185.999932,25.1058068 187.470614,24.411375 C188.942318,23.7159205 190.60425,23.3692159 192.457432,23.3692159 C193.848341,23.3692159 195.157432,23.5604659 196.384705,23.9429659 C197.613,24.3244432 198.696068,24.8808068 199.634932,25.6100114 C200.572773,26.3402386 201.331636,27.2259205 201.9105,28.2691023 C202.490386,29.3122841 202.849364,30.5058068 202.988455,31.8486477 L198.643909,31.8486477 Z" id="Fill-8" fill="#262C40"></path>
                    <path d="M206.428193,23.9594318 L210.390239,23.9594318 L210.390239,33.1690909 L210.459784,33.1690909 C210.946602,32.3590909 211.66967,31.6810227 212.631034,31.1369318 C213.59342,30.5918182 214.665239,30.3197727 215.846489,30.3197727 C217.816261,30.3197727 219.367739,30.8301136 220.503989,31.84875 C221.638193,32.8684091 222.20683,34.3973864 222.20683,36.4356818 L222.20683,48.7738636 L218.244784,48.7738636 L218.244784,37.4788636 C218.197739,36.0654545 217.897057,35.0406818 217.340693,34.4025 C216.785352,33.7663636 215.916034,33.4472727 214.734784,33.4472727 C214.062852,33.4472727 213.459443,33.5689773 212.926602,33.8123864 C212.393761,34.0547727 211.942739,34.39125 211.571489,34.8197727 C211.201261,35.2482955 210.91183,35.7525 210.703193,36.3323864 C210.494557,36.91125 210.390239,37.5259091 210.390239,38.1732955 L210.390239,48.7738636 L206.428193,48.7738636 L206.428193,23.9594318 Z" id="Fill-10" fill="#262C40"></path>
                    <mask id="mask-2" fill="white">
                        <use xlink:href="#path-1"></use>
                    </mask>
                    <g id="Clip-13"></g>
                    <path d="M245.803295,48.7728409 L249.765341,48.7728409 L249.765341,30.8055682 L245.803295,30.8055682 L245.803295,48.7728409 Z M245.803295,27.7128409 L249.765341,27.7128409 L249.765341,23.9594318 L245.803295,23.9594318 L245.803295,27.7128409 Z" id="Fill-12" fill="#262C40" mask="url(#mask-2)"></path>
                    <path d="M254.074909,30.8059773 L257.828318,30.8059773 L257.828318,33.4476818 L257.896841,33.5162045 C258.499227,32.5210909 259.28775,31.7387045 260.260364,31.1700682 C261.234,30.6034773 262.310932,30.3191591 263.492182,30.3191591 C265.461955,30.3191591 267.014455,30.8295 268.149682,31.8491591 C269.284909,32.8688182 269.852523,34.3977955 269.852523,36.4360909 L269.852523,48.77325 L265.890477,48.77325 L265.890477,37.47825 C265.844455,36.0658636 265.54275,35.0410909 264.987409,34.4029091 C264.431045,33.7667727 263.561727,33.4476818 262.380477,33.4476818 C261.708545,33.4476818 261.106159,33.5683636 260.573318,33.8117727 C260.040477,34.0551818 259.588432,34.3916591 259.218205,34.8201818 C258.846955,35.2487045 258.557523,35.7529091 258.349909,36.3317727 C258.141273,36.9116591 258.035932,37.5252955 258.035932,38.1737045 L258.035932,48.77325 L254.074909,48.77325 L254.074909,30.8059773 Z" id="Fill-14" fill="#262C40" mask="url(#mask-2)"></path>
                    <path d="M237.5055,44.1373295 C236.529818,45.2265341 235.250386,45.7726705 233.667205,45.7726705 C232.185273,45.7726705 230.955955,45.208125 229.980273,44.0800568 C229.030159,42.9652841 228.554591,41.5211932 228.554591,39.7477841 C228.554591,38.0889205 229.042432,36.6959659 230.018114,35.566875 C231.007091,34.4521023 232.235386,33.8947159 233.705045,33.8947159 C235.263682,33.8947159 236.529818,34.4459659 237.5055,35.5484659 C238.480159,36.6755114 238.969023,38.1073295 238.969023,39.8428977 C238.969023,41.5784659 238.480159,43.0102841 237.5055,44.1373295 L237.5055,44.1373295 Z M238.725614,33.3005114 C237.162886,31.6805114 235.397659,30.8705114 233.430955,30.8705114 C231.150273,30.8705114 229.253114,31.7152841 227.736409,33.4048295 C226.220727,35.0953977 225.462886,37.2073295 225.462886,39.7416477 C225.462886,42.3230114 226.220727,44.4748295 227.736409,46.2001705 C229.264364,47.8897159 231.197318,48.7344886 233.535273,48.7344886 C235.386409,48.7344886 237.116864,47.9817614 238.725614,46.4773295 L238.725614,48.7344886 L242.401295,48.7344886 L242.401295,31.3389205 L238.725614,31.3389205 L238.725614,33.3005114 Z" id="Fill-15" fill="#262C40" mask="url(#mask-2)"></path>
                    <path d="M52.4438182,56.7975682 C57.0890455,53.0206364 60.3525682,47.7392727 61.6360909,41.9250682 C61.857,40.9217727 61.2208636,39.9246136 60.2175682,39.7026818 C59.7287045,39.59325 59.2326818,39.68325 58.8123409,39.9512045 C58.392,40.2201818 58.1015455,40.6354091 57.9941591,41.1222273 C56.8926818,46.11825 54.0852955,50.6571136 50.0915455,53.9042727 C46.0405227,57.1974545 40.9289318,59.01075 35.6987045,59.01075 C23.1089318,59.01075 12.8673409,48.7681364 12.8673409,36.1793864 C12.8673409,23.5896136 23.1089318,13.3480227 35.6987045,13.3480227 C43.26075,13.3480227 50.3206364,17.0840455 54.5843864,23.3431364 C54.8635909,23.7552955 55.2880227,24.0334773 55.7779091,24.1265455 C56.2667727,24.2185909 56.7627955,24.1152955 57.1739318,23.8360909 C57.5860909,23.5548409 57.8642727,23.1304091 57.9573409,22.6415455 C58.0493864,22.1526818 57.9460909,21.6566591 57.6648409,21.2445 C52.7076818,13.9647273 44.4962045,9.61813636 35.6987045,9.61813636 C21.05325,9.61813636 9.13745455,21.5339318 9.13745455,36.1793864 C9.13745455,50.8248409 21.05325,62.7406364 35.6987045,62.7406364 C41.7839318,62.7406364 47.7310909,60.6297273 52.4438182,56.7975682" id="Fill-16" fill="#00E8B4" mask="url(#mask-2)"></path>
                    <path d="M66.4474091,19.1374773 C61.89525,10.8462273 54.3863864,4.82440909 45.3055909,2.18065909 C36.2268409,-0.462068182 26.6582045,0.58725 18.3659318,5.14043182 C11.2549091,9.04520455 5.65956818,15.3257727 2.61081818,22.8285 C-0.393954545,30.2228182 -0.820431818,38.4895227 1.41115909,46.1057727 C1.55127273,46.5844091 1.86934091,46.9791818 2.30604545,47.2174773 C2.74275,47.4578182 3.24695455,47.5120227 3.72559091,47.3708864 C4.20320455,47.2317955 4.59695455,46.9127045 4.83729545,46.476 C5.07559091,46.0403182 5.13081818,45.5361136 4.98968182,45.0585 C2.99434091,38.2461136 3.37684091,30.84975 6.06559091,24.2316818 C8.79320455,17.5225909 13.7984318,11.9027045 20.1608182,8.40906818 C27.5786591,4.33554545 36.1368409,3.39565909 44.2634318,5.76122727 C52.3879773,8.12679545 59.10525,13.5145227 63.1787727,20.9313409 C71.5855909,36.2446364 65.96775,55.5414545 50.6575227,63.9492955 C43.9821818,67.6127045 36.2125227,68.7540682 28.77525,67.1586136 C27.7709318,66.93975 26.7758182,67.5861136 26.5610455,68.5904318 C26.4567273,69.07725 26.54775,69.5753182 26.8187727,69.9946364 C27.0897955,70.4119091 27.5060455,70.6992955 27.9928636,70.8046364 C30.4269545,71.3262273 32.9213864,71.5911136 35.4066136,71.5911136 C41.3486591,71.5900909 47.2426364,70.0785 52.4503636,67.2179318 C60.7416136,62.6657727 66.7644545,55.1579318 69.4082045,46.0771364 C72.0509318,36.9953182 70.9985455,27.4277045 66.4474091,19.1374773" id="Fill-17" fill="#00E8B4" mask="url(#mask-2)"></path>
                    <path d="M33.7740341,49.5775227 C35.1352841,50.2269545 36.5783523,50.5562727 38.0613068,50.5562727 C40.2928977,50.5562727 42.4886932,49.7718409 44.2457386,48.3482045 C44.4819886,48.1569545 44.7192614,47.9513864 44.9534659,47.7386591 C45.8391477,46.9255909 45.8984659,45.5459318 45.0884659,44.6592273 C44.2764205,43.7735455 42.8957386,43.7142273 42.0080114,44.52525 C41.8402841,44.6796818 41.6705114,44.8259318 41.5027841,44.9609318 C39.8152841,46.3303636 37.6286932,46.5860455 35.6486932,45.6430909 C33.6369886,44.6837727 32.4352841,42.7855909 32.4352841,40.56525 L32.4352841,30.5660455 L43.6975568,30.5660455 C44.7663068,30.5660455 45.6366477,29.6967273 45.6366477,28.6279773 C45.6366477,27.5582045 44.7663068,26.6878636 43.6975568,26.6878636 L32.4352841,26.6878636 L32.4352841,23.9663864 C32.4352841,22.7646818 31.4575568,21.7869545 30.256875,21.7869545 C29.0551705,21.7869545 28.0774432,22.7646818 28.0774432,23.9663864 L28.0774432,26.6878636 L25.1841477,26.6878636 C24.114375,26.6878636 23.2440341,27.5582045 23.2440341,28.6279773 C23.2440341,29.6967273 24.114375,30.5660455 25.1841477,30.5660455 L28.0774432,30.5660455 L28.0774432,40.56525 C28.0774432,44.4485455 30.2599432,47.9012727 33.7740341,49.5775227" id="Fill-18" fill="#00E8B4" mask="url(#mask-2)"></path>
                </g>
            </g>
        </g>
    </g>
</svg>