<?xml version="1.0" encoding="UTF-8"?>
<svg width="112px" height="113px" viewBox="0 0 112 113" version="1.1" xmlns="http://www.w3.org/2000/svg" xmlns:xlink="http://www.w3.org/1999/xlink">
    <!-- Generator: Sketch 57.1 (83088) - https://sketch.com -->
    <title>dex-deposit-withdrawal</title>
    <desc>Created with Sketch.</desc>
    <g id="Page-1" stroke="none" stroke-width="1" fill="none" fill-rule="evenodd">
        <g id="DEX-Copy-2" transform="translate(-733.000000, -2215.000000)">
            <g id="dex-deposit-withdrawal" transform="translate(735.000000, 2217.000000)">
                <g id="Group-18">
                    <path d="M43.346,0 C51.268,0 57.691,6.422 57.691,14.345 C57.691,22.268 51.268,28.69 43.346,28.69 C35.423,28.69 29,22.268 29,14.345 C29,6.422 35.423,0 43.346,0" id="Fill-2" fill="#00E8B4"></path>
                    <path d="M26.2909,41.2764 C34.2139,41.2764 40.6359,47.6984 40.6359,55.6214 C40.6359,63.5444 34.2139,69.9664 26.2909,69.9664 C18.3679,69.9664 11.9459,63.5444 11.9459,55.6214 C11.9459,47.6984 18.3679,41.2764 26.2909,41.2764" id="Fill-4"></path>
                    <path d="M89.6571,98.5767 C86.0701,98.5767 62.8731,108.9997 50.2081,108.9997 C42.6051,108.9997 35.9541,105.1087 21.5171,98.2417 C14.6681,94.9777 0.0001,86.3837 0.0001,80.3097 C0.0001,73.1377 19.5331,82.2157 35.9541,87.4827 M89.6571,105.4127 L107.5881,105.4127 L107.5881,64.9597 L89.6571,64.9597" id="Stroke-10" stroke="#FFFFFF" stroke-width="3" stroke-linecap="round" stroke-linejoin="round"></path>
                    <path d="M43.346,0 C51.268,0 57.691,6.422 57.691,14.345 C57.691,22.268 51.268,28.69 43.346,28.69 C35.423,28.69 29,22.268 29,14.345 C29,6.422 35.423,0 43.346,0 Z" id="Stroke-12" stroke="#FFFFFF" stroke-width="3" stroke-linecap="round" stroke-linejoin="round"></path>
                    <path d="M20.346,39 C28.268,39 34.691,45.422 34.691,53.345 C34.691,61.268 28.268,67.69 20.346,67.69 C12.423,67.69 6,61.268 6,53.345 C6,45.422 12.423,39 20.346,39" id="Fill-2-Copy-2" fill="#00E8B4"></path>
                    <path d="M20.346,39 C28.268,39 34.691,45.422 34.691,53.345 C34.691,61.268 28.268,67.69 20.346,67.69 C12.423,67.69 6,61.268 6,53.345 C6,45.422 12.423,39 20.346,39 Z" id="Stroke-12-Copy-2" stroke="#FFFFFF" stroke-width="3" stroke-linecap="round" stroke-linejoin="round"></path>
                    <path d="M75.346,28 C83.268,28 89.691,34.422 89.691,42.345 C89.691,50.268 83.268,56.69 75.346,56.69 C67.423,56.69 61,50.268 61,42.345 C61,34.422 67.423,28 75.346,28" id="Fill-2-Copy" fill="#00E8B4"></path>
                    <path d="M75.346,28 C83.268,28 89.691,34.422 89.691,42.345 C89.691,50.268 83.268,56.69 75.346,56.69 C67.423,56.69 61,50.268 61,42.345 C61,34.422 67.423,28 75.346,28 Z" id="Stroke-12-Copy" stroke="#FFFFFF" stroke-width="3" stroke-linecap="round" stroke-linejoin="round"></path>
                    <path d="M61.0585,94.6548 L43.1265,94.6548 C39.1655,94.6548 35.9545,91.4438 35.9545,87.4828 C35.9545,83.5208 39.1655,80.3098 43.1265,80.3098 L50.2995,80.3098 C71.7255,80.3098 64.4905,69.5508 89.5935,69.5508" id="Stroke-16" stroke="#FFFFFF" stroke-width="3" stroke-linecap="round" stroke-linejoin="round"></path>
                    <path d="M89.6571,64.9664 L89.6571,105.4127" id="Path-3" stroke="#FFFFFF" stroke-width="3"></path>
                    <path d="M96,72 C96,78.3420334 96,81.51305 96,81.51305" id="Path-3-Copy" stroke="#00E8B4" stroke-width="3" stroke-linecap="round"></path>
                </g>
            </g>
        </g>
    </g>
</svg>