<?xml version="1.0" encoding="UTF-8"?>
<svg width="87px" height="108px" viewBox="0 0 87 108" version="1.1" xmlns="http://www.w3.org/2000/svg" xmlns:xlink="http://www.w3.org/1999/xlink">
    <!-- Generator: Sketch 57.1 (83088) - https://sketch.com -->
    <title>dex-exchange</title>
    <desc>Created with Sketch.</desc>
    <g id="Page-1" stroke="none" stroke-width="1" fill="none" fill-rule="evenodd">
        <g id="DEX-Copy-2" transform="translate(-1034.000000, -2219.000000)">
            <g id="dex-exchange" transform="translate(1035.000000, 2220.000000)">
                <g id="Group-3" fill="#FFFFFF" stroke="#FFFFFF">
                    <path d="M12.4005,4.4699 C12.4005,3.7599 12.6295,3.6099 12.7005,3.5599 C12.9005,3.4199 13.2005,3.3599 13.5595,3.3599 C15.2995,3.3599 18.6895,4.7199 21.5095,5.8499 C25.3095,7.3699 29.2405,8.9399 32.2005,8.9399 C38.0195,8.9399 41.0595,6.5899 43.5095,4.6999 C45.4695,3.1999 47.0195,1.9999 49.5405,1.9999 C52.0195,1.9999 53.5005,3.1999 55.3795,4.7199 C57.7995,6.6699 60.8095,9.1099 66.8705,9.1099 L66.9695,9.1099 C67.1605,10.5899 62.6705,17.7799 52.5805,27.7399 L32.5805,27.7399 C24.3705,20.5899 12.4005,8.6599 12.4005,4.4699 M66.8705,103.9999 L18.3395,103.9999 C9.3305,103.9999 2.0005,96.6799 2.0005,87.6699 C2.0005,55.5599 29.5995,32.1499 32.5595,29.7399 L52.6395,29.7299 C55.5895,32.1299 83.2005,55.5199 83.2005,87.6699 C83.2005,96.6799 75.8795,103.9999 66.8705,103.9999 M55.7695,29.7799 C56.1395,29.7999 56.5005,29.7999 56.8605,29.7999 C64.4605,29.7999 71.8495,27.2799 77.8795,22.5899 C78.3205,22.2499 78.4005,21.6299 78.0595,21.1899 C77.7195,20.7499 77.0895,20.6699 76.6605,21.0099 C70.5995,25.7199 63.0805,28.1099 55.3795,27.7699 C61.6605,21.3799 70.1395,11.5299 68.7995,8.2699 C68.6605,7.9199 68.1895,7.1099 66.8705,7.1099 C61.5195,7.1099 59.0305,5.0999 56.6295,3.1599 C54.6205,1.5399 52.7195,-0.0001 49.5405,-0.0001 C46.3305,-0.0001 44.3705,1.5199 42.2905,3.1199 C39.8495,4.9999 37.3305,6.9399 32.2005,6.9399 C29.6205,6.9399 25.8795,5.4399 22.2595,3.9899 C17.4205,2.0599 13.6105,0.5299 11.5805,1.8999 C11.0405,2.2699 10.4005,3.0099 10.4005,4.4699 C10.4005,10.4299 26.3095,24.8699 30.6605,28.7099 C25.4295,33.1499 0.0005,56.3299 0.0005,87.6699 C0.0005,97.7799 8.2295,105.9999 18.3395,105.9999 L66.8705,105.9999 C76.9795,105.9999 85.2005,97.7799 85.2005,87.6699 C85.2005,58.3199 62.8895,36.1199 55.7695,29.7799" id="Fill-1"></path>
                </g>
                <path d="M66.9698,9.11 C67.1598,10.59 62.6698,17.78 52.5798,27.74 L32.5798,27.74 C24.3698,20.59 12.4008,8.66 12.4008,4.47 C12.4008,3.76 12.6298,3.61 12.6998,3.56 C12.9008,3.42 13.1998,3.36 13.5598,3.36 C15.2998,3.36 18.6898,4.72 21.5098,5.85 C25.3098,7.37 29.2408,8.94 32.1998,8.94 C38.0198,8.94 41.0598,6.59 43.5098,4.7 C45.4698,3.2 47.0198,2 49.5398,2 C52.0198,2 53.4998,3.2 55.3798,4.72 C57.7998,6.67 60.8098,9.11 66.8698,9.11 L66.9698,9.11 Z" id="Fill-4" fill="#00E8B4"></path>
                <path d="M84.2042,41.8698 C83.8732,41.8698 83.5492,41.7058 83.3582,41.4048 C81.3162,38.1828 77.6772,36.3658 73.8812,36.6668 C73.3342,36.7108 72.8492,36.2998 72.8062,35.7488 C72.7632,35.1978 73.1742,34.7168 73.7252,34.6728 C78.2592,34.3148 82.6072,36.4838 85.0482,40.3348 C85.3442,40.8008 85.2052,41.4188 84.7382,41.7148 C84.5722,41.8198 84.3872,41.8698 84.2042,41.8698" id="Fill-6" stroke="#FFFFFF" fill="#FFFFFF"></path>
                <g id="Group-9" transform="translate(33.203100, 47.603400)" stroke="#00E8B4" stroke-linecap="round" stroke-linejoin="round" stroke-width="4">
                    <path d="M17.6802857,11.8855714 C16.956,7.605 13.2548571,4.46871429 8.91428571,4.45671429 C4.01142857,4.45671429 -2.13162821e-14,7.72585714 -2.13162821e-14,12.6287143 C-2.13162821e-14,17.5315714 4.45714286,19.7601429 8.91428571,20.7998571" id="Stroke-8"></path>
                    <path d="M8.57142858e-05,28.2286286 C8.57142858e-05,33.1520571 3.99094286,37.1429143 8.91437143,37.1429143 C13.8172286,37.1429143 17.8286571,33.8737714 17.8286571,28.9717714 C17.8286571,24.0680571 13.3715143,21.8394857 8.91437143,20.7997714" id="Stroke-10"></path>
                    <path d="M8.91471429,4.45714286 L8.91471429,-9.23705556e-14" id="Stroke-12"></path>
                    <path d="M8.91471429,41.6001429 L8.91471429,37.143" id="Stroke-14"></path>
                </g>
            </g>
        </g>
    </g>
</svg>