<svg xmlns="http://www.w3.org/2000/svg" viewBox="0 0 1938.62 452.43"><defs><style>.cls-1{fill:#fff;}.cls-2{fill:#00e8b5;}</style></defs><title>Asset 46</title><g id="Layer_2" data-name="Layer 2"><g id="Layer_1-2" data-name="Layer 1"><path class="cls-1" d="M627.24,450V293.94H567.57V259.65H729v34.29H669.36V450Z"/><path class="cls-1" d="M753.06,443.66a59.49,59.49,0,0,1-24.57-24q-8.65-15.51-8.64-36.58t8.64-36.59a58.72,58.72,0,0,1,24.57-23.89q15.93-8.37,37-8.37t37,8.37a58.9,58.9,0,0,1,24.57,23.89Q860.25,362,860.25,383t-8.64,36.58a59.67,59.67,0,0,1-24.57,24q-15.94,8.49-37,8.5T753.06,443.66ZM819.75,383q0-19.17-7.7-28.62t-22-9.45q-29.71,0-29.7,38.07t29.7,38.07Q819.75,421.11,819.75,383Z"/><path class="cls-1" d="M1082.19,328q11.07,13.77,11.07,42.12V450h-40.77V371.43q0-13.5-4.19-19.44t-14.17-5.94q-11.61,0-18.09,8.1t-6.48,22.68V450H968.79V371.43q0-13.5-4.19-19.44t-14.17-5.94q-11.61,0-18.09,8.1t-6.48,22.68V450H885.09V317.43h39.69v17.82a41.38,41.38,0,0,1,16.6-15.66,51.08,51.08,0,0,1,23.9-5.4q29.41,0,39.42,24.57a47.5,47.5,0,0,1,18.09-18,51,51,0,0,1,25.65-6.61Q1071.12,314.19,1082.19,328Z"/><path class="cls-1" d="M1150.76,443.66a59.52,59.52,0,0,1-24.56-24q-8.65-15.51-8.65-36.58t8.65-36.59a58.76,58.76,0,0,1,24.56-23.89q15.93-8.37,37-8.37t37,8.37a58.92,58.92,0,0,1,24.58,23.89Q1257.95,362,1258,383t-8.63,36.58a59.69,59.69,0,0,1-24.58,24q-15.93,8.49-37,8.5T1150.76,443.66ZM1217.45,383q0-19.17-7.69-28.62t-22-9.45q-29.7,0-29.7,38.07t29.7,38.07Q1217.45,421.11,1217.45,383Z"/><path class="cls-1" d="M1311.14,446.62q-20-5.79-33.21-16.06l13.5-30q27.54,19.17,61.83,19.17,17.82,0,27.41-5.81t9.58-16.06q0-9.18-8.77-14.31t-31.19-10q-25.11-5.13-40.09-12.42t-21.87-18q-6.88-10.65-6.89-26.32a51.85,51.85,0,0,1,9.59-30.78q9.59-13.5,26.86-21.2t40-7.69a128.53,128.53,0,0,1,39,5.94q18.77,5.94,29.83,15.93l-13.5,30q-26.19-19.17-55.08-19.17-16.47,0-25.92,6.35t-9.45,17.41a15.67,15.67,0,0,0,3.65,10.67q3.64,4.19,12.15,7.42a185.52,185.52,0,0,0,24.16,6.75q36.72,8.1,52.79,20.79t16.06,35.1q0,27-20.79,42.53t-58,15.52A148.28,148.28,0,0,1,1311.14,446.62Z"/><path class="cls-1" d="M1542.26,421.38l-2.16,29.7a114.48,114.48,0,0,1-15.66,1.08q-30.24,0-44.14-13.23t-13.91-40.23V347.94h-25.11V317.43h25.11V278.55h40.77v38.88h33.21v30.51h-33.21v50.49q0,23.76,22.14,23.76A108.86,108.86,0,0,0,1542.26,421.38Z"/><path class="cls-1" d="M1694.54,317.43V450H1654V430.29a41.54,41.54,0,0,1-16.88,16.07,52,52,0,0,1-24.7,5.8q-17.28,0-30.51-8.37t-20.65-23.9q-7.44-15.51-7.43-36t7.43-36.32A58.25,58.25,0,0,1,1582.08,323a54.19,54.19,0,0,1,30.38-8.77,52,52,0,0,1,24.7,5.8A41.61,41.61,0,0,1,1654,336.06V317.43Zm-48.19,94q7.7-9.72,7.69-28.08t-7.69-28.22q-7.69-9.84-22-9.85t-22.14,10.12q-7.83,10.13-7.83,28.49,0,18.09,7.83,27.68t22.14,9.58Q1638.65,421.11,1646.35,411.39Z"/><path class="cls-1" d="M1812.26,421.38l-2.16,29.7a114.59,114.59,0,0,1-15.66,1.08q-30.24,0-44.15-13.23t-13.9-40.23V347.94h-25.11V317.43h25.11V278.55h40.77v38.88h33.21v30.51h-33.21v50.49q0,23.76,22.14,23.76A108.86,108.86,0,0,0,1812.26,421.38Z"/><path class="cls-1" d="M1847.76,448a83.1,83.1,0,0,1-26.32-12l10.8-28.08A90.24,90.24,0,0,0,1856,419.22a87.34,87.34,0,0,0,26.19,4q9.45,0,14.71-3.11t5.27-8.5a8.87,8.87,0,0,0-3.65-7.56q-3.64-2.7-13.63-4.86l-21.6-4.86q-19.18-4.32-28.22-13.37t-9-24.7a35.23,35.23,0,0,1,7.15-21.87q7.15-9.45,20.25-14.85t29.84-5.4a90.79,90.79,0,0,1,27.81,4.32,85.69,85.69,0,0,1,24.3,12.15l-10.8,27q-21.06-14.58-41.58-14.58-9.46,0-14.85,3.24a10.15,10.15,0,0,0-5.4,9.18,8,8,0,0,0,3.24,6.75q3.24,2.43,11.34,4.59l22.41,5.13q20.25,4.59,29.56,13.9t9.32,25.25q0,19.17-15.26,30.1t-42,10.94A126.84,126.84,0,0,1,1847.76,448Z"/><polygon class="cls-1" points="160.71 0 160.71 450 241.07 450 241.07 80.36 160.71 0"/><polygon class="cls-2" points="321.43 160.71 321.43 450 401.79 450 401.79 241.07 321.43 160.71"/><polygon class="cls-1" points="0 80.36 0 450 80.36 450 80.36 160.71 0 80.36"/></g></g></svg>