<?xml version="1.0" encoding="UTF-8"?>
<svg width="156px" height="44px" viewBox="0 0 156 44" version="1.1" xmlns="http://www.w3.org/2000/svg" xmlns:xlink="http://www.w3.org/1999/xlink">
    <!-- Generator: Sketch 59.1 (86144) - https://sketch.com -->
    <title>Group 3</title>
    <desc>Created with Sketch.</desc>
    <defs>
        <path d="M10.8902372,2.60085455 C6.67316405,4.91645775 3.35582273,8.64060248 1.54719675,13.0891749 L1.54719675,13.0891749 C0.524690885,15.6063474 0.00610815931,18.2939375 0,20.9815276 L0,20.9815276 L0,21.069485 C0.00366489559,23.0332583 0.281586144,24.9958099 0.836817826,26.8911717 L0.836817826,26.8911717 C0.985856913,27.4005922 1.51971004,27.6919514 2.02913052,27.5429123 L2.02913052,27.5429123 C2.53855101,27.3932624 2.82991021,26.8600201 2.68087112,26.3505996 L2.68087112,26.3505996 C1.47939619,22.2495814 1.70906298,17.7961225 3.32833601,13.8129918 L3.32833601,13.8129918 C4.97020923,9.7724444 7.98397504,6.38913496 11.8150126,4.28609571 L11.8150126,4.28609571 C16.2806878,1.83366974 21.4341418,1.26744338 26.3255558,2.69186613 L26.3255558,2.69186613 C31.2175806,4.11567806 35.2617929,7.35911066 37.7142189,11.8247859 L37.7142189,11.8247859 C42.7760505,21.0438308 39.3939627,32.6627714 30.1749178,37.7239922 L30.1749178,37.7239922 C26.1563598,39.931481 21.4775098,40.6174273 17.0008398,39.6566138 L17.0008398,39.6566138 C16.4816463,39.5454453 15.971615,39.8752859 15.8598357,40.3938687 L15.8598357,40.3938687 C15.7486672,40.9130622 16.0791186,41.4237043 16.5983121,41.5354836 L16.5983121,41.5354836 C18.052054,41.8469998 19.5247312,42.0015362 20.9937436,42.0015362 L20.9937436,42.0015362 C24.5016594,42.0009254 27.9814778,41.1207396 31.0996931,39.4092334 L31.0996931,39.4092334 C36.0161506,36.7100378 39.5857589,32.2578005 41.1537234,26.873458 L41.1537234,26.873458 C42.721077,21.4885048 42.097434,15.8158572 39.3982384,10.9000106 L39.3982384,10.9000106 C36.6990428,5.984164 32.2480271,2.41333406 26.8630738,0.845980384 L26.8630738,0.845980384 C24.9188467,0.280364831 22.9355274,-3.55271368e-15 20.9650352,-3.55271368e-15 L20.9650352,-3.55271368e-15 C17.4791087,-0.000610497132 14.0304419,0.87652118 10.8902372,2.60085455 M5.45702953,21.0047386 C5.45702953,29.6685517 12.5046237,36.7155351 21.1672153,36.7155351 L21.1672153,36.7155351 C24.7679752,36.7155351 28.2850533,35.4676382 31.0728172,33.2009003 L31.0728172,33.2009003 C33.8202673,30.9665356 35.7510565,27.8428229 36.5096898,24.4039292 L36.5096898,24.4039292 C36.6245232,23.8853465 36.2965151,23.3728719 35.7785432,23.2580385 L35.7785432,23.2580385 C35.2605713,23.143816 34.7474859,23.4718241 34.6332633,23.989796 L34.6332633,23.989796 C33.9674739,27.0066159 32.2724597,29.7479578 29.8597368,31.7092878 L29.8597368,31.7092878 C27.4140298,33.6981044 24.3275769,34.7939082 21.1672153,34.7939082 L21.1672153,34.7939082 C13.5650002,34.7939082 7.37926726,28.6081753 7.37926726,21.0047386 L7.37926726,21.0047386 C7.37926726,13.4019127 13.5650002,7.21617973 21.1672153,7.21617973 L21.1672153,7.21617973 C25.7355076,7.21617973 29.998392,9.47253378 32.5729812,13.2528736 L32.5729812,13.2528736 C32.8716702,13.6920502 33.4696589,13.8050512 33.9082248,13.5057514 L33.9082248,13.5057514 C34.3467906,13.2076732 34.4604024,12.6102952 34.1611026,12.1711186 L34.1611026,12.1711186 C31.2279645,7.86547706 26.3707562,5.29394199 21.1672153,5.29394199 L21.1672153,5.29394199 C12.5046237,5.29394199 5.45702953,12.342147 5.45702953,21.0047386 M16.7687298,13.7109855 L16.7687298,15.4896815 L14.8880275,15.4896815 C14.3327958,15.4896815 13.8826245,15.9398529 13.8826245,16.4944737 L13.8826245,16.4944737 C13.8826245,17.0497054 14.3327958,17.4998767 14.8880275,17.4998767 L14.8880275,17.4998767 L16.7687298,17.4998767 L16.7687298,23.6251389 C16.7687298,25.884547 18.0392269,27.8941314 20.0842386,28.8689937 L20.0842386,28.8689937 C20.8856291,29.2513644 21.7358849,29.4388849 22.5794217,29.4388849 L22.5794217,29.4388849 C23.8633568,29.4388849 25.1295782,29.0027624 26.1771275,28.154339 L26.1771275,28.154339 C26.3157828,28.0419489 26.4550488,27.9210073 26.5918716,27.7964009 L26.5918716,27.7964009 C27.0597566,27.3669973 27.0909082,26.6401263 26.6627262,26.1728522 L26.6627262,26.1728522 C26.2339334,25.7049672 25.5070625,25.6732047 25.0397883,26.1019975 L25.0397883,26.1019975 C24.9365604,26.1960632 24.8327217,26.2858531 24.7294938,26.3689241 L24.7294938,26.3689241 C23.6752255,27.2240664 22.3082194,27.3834893 21.0731496,26.7946628 L21.0731496,26.7946628 C19.8160904,26.1960632 19.0666193,25.0110803 19.0666193,23.6251389 L19.0666193,23.6251389 L19.0666193,17.4998767 L25.9450175,17.4998767 C26.5002492,17.4998767 26.9504205,17.0497054 26.9504205,16.4944737 L26.9504205,16.4944737 C26.9504205,15.9398529 26.5002492,15.4896815 25.9450175,15.4896815 L25.9450175,15.4896815 L19.0666193,15.4896815 L19.0666193,13.7109855 C19.0666193,13.0769586 18.5510906,12.5620408 17.9176745,12.5620408 L17.9176745,12.5620408 C17.282426,12.5620408 16.7687298,13.0769586 16.7687298,13.7109855" id="path-1"></path>
    </defs>
    <g id="Page-1" stroke="none" stroke-width="1" fill="none" fill-rule="evenodd">
        <g id="DEX" transform="translate(-134.000000, -50.000000)">
            <g id="Group-3" transform="translate(135.000000, 51.000000)">
                <path d="M57.324,30 L57.324,16.822 L52.264,16.822 L52.264,14.49 L65.222,14.49 L65.222,16.822 L60.162,16.822 L60.162,30 L57.324,30 Z M71.822,30.176 C70.7219945,30.176 69.7576708,29.9486689 68.929,29.494 C68.1003292,29.0393311 67.4586689,28.3866709 67.004,27.536 C66.5493311,26.6853291 66.322,25.695339 66.322,24.566 C66.322,23.436661 66.5493311,22.4503376 67.004,21.607 C67.4586689,20.7636624 68.1003292,20.1146689 68.929,19.66 C69.7576708,19.2053311 70.7219945,18.978 71.822,18.978 C72.9220055,18.978 73.8863292,19.2053311 74.715,19.66 C75.5436708,20.1146689 76.1816644,20.7636624 76.629,21.607 C77.0763356,22.4503376 77.3,23.436661 77.3,24.566 C77.3,25.695339 77.0763356,26.6853291 76.629,27.536 C76.1816644,28.3866709 75.5436708,29.0393311 74.715,29.494 C73.8863292,29.9486689 72.9220055,30.176 71.822,30.176 Z M71.8,28.042 C72.6946711,28.042 73.3766643,27.7486696 73.846,27.162 C74.3153357,26.5753304 74.55,25.7100057 74.55,24.566 C74.55,23.436661 74.3153357,22.575003 73.846,21.981 C73.3766643,21.386997 72.7020044,21.09 71.822,21.09 C70.9419956,21.09 70.2636691,21.386997 69.787,21.981 C69.310331,22.575003 69.072,23.436661 69.072,24.566 C69.072,25.7100057 69.3066643,26.5753304 69.776,27.162 C70.2453357,27.7486696 70.9199956,28.042 71.8,28.042 Z M92.348,18.978 C93.5653394,18.978 94.4746637,19.3409964 95.076,20.067 C95.6773363,20.7930036 95.978,21.9039925 95.978,23.4 L95.978,30 L93.228,30 L93.228,23.51 C93.228,22.6886626 93.0886681,22.0910019 92.81,21.717 C92.5313319,21.3429981 92.0840031,21.156 91.468,21.156 C90.734663,21.156 90.1626687,21.4053308 89.752,21.904 C89.3413313,22.4026692 89.136,23.0993289 89.136,23.994 L89.136,30 L86.386,30 L86.386,23.51 C86.386,22.6886626 86.2503347,22.0910019 85.979,21.717 C85.7076653,21.3429981 85.2566698,21.156 84.626,21.156 C83.9073297,21.156 83.3426687,21.4053308 82.932,21.904 C82.5213313,22.4026692 82.316,23.0993289 82.316,23.994 L82.316,30 L79.566,30 L79.566,19.242 L82.25,19.242 L82.25,20.76 C82.5726683,20.1733304 83.0199971,19.7296682 83.592,19.429 C84.1640029,19.1283318 84.816663,18.978 85.55,18.978 C87.1780081,18.978 88.2559974,19.6526599 88.784,21.002 C89.121335,20.3713302 89.6053302,19.8763351 90.236,19.517 C90.8666698,19.1576649 91.5706628,18.978 92.348,18.978 Z M103.678,30.176 C102.577994,30.176 101.613671,29.9486689 100.785,29.494 C99.9563292,29.0393311 99.3146689,28.3866709 98.86,27.536 C98.4053311,26.6853291 98.178,25.695339 98.178,24.566 C98.178,23.436661 98.4053311,22.4503376 98.86,21.607 C99.3146689,20.7636624 99.9563292,20.1146689 100.785,19.66 C101.613671,19.2053311 102.577994,18.978 103.678,18.978 C104.778006,18.978 105.742329,19.2053311 106.571,19.66 C107.399671,20.1146689 108.037664,20.7636624 108.485,21.607 C108.932336,22.4503376 109.156,23.436661 109.156,24.566 C109.156,25.695339 108.932336,26.6853291 108.485,27.536 C108.037664,28.3866709 107.399671,29.0393311 106.571,29.494 C105.742329,29.9486689 104.778006,30.176 103.678,30.176 Z M103.656,28.042 C104.550671,28.042 105.232664,27.7486696 105.702,27.162 C106.171336,26.5753304 106.406,25.7100057 106.406,24.566 C106.406,23.436661 106.171336,22.575003 105.702,21.981 C105.232664,21.386997 104.558004,21.09 103.678,21.09 C102.797996,21.09 102.119669,21.386997 101.643,21.981 C101.166331,22.575003 100.928,23.436661 100.928,24.566 C100.928,25.7100057 101.162664,26.5753304 101.632,27.162 C102.101336,27.7486696 102.775996,28.042 103.656,28.042 Z M111.664,14.49 L117.384,14.49 C119.921346,14.49 121.890326,15.1683265 123.291,16.525 C124.691674,17.8816735 125.392,19.7846544 125.392,22.234 C125.392,24.6833456 124.691674,26.5899932 123.291,27.954 C121.890326,29.3180068 119.921346,30 117.384,30 L111.664,30 L111.664,14.49 Z M117.208,27.69 C120.772018,27.69 122.554,25.8713515 122.554,22.234 C122.554,18.6113152 120.772018,16.8 117.208,16.8 L114.502,16.8 L114.502,27.69 L117.208,27.69 Z M128.252,30 L128.252,14.49 L138.636,14.49 L138.636,16.734 L131.024,16.734 L131.024,21.002 L138.196,21.002 L138.196,23.224 L131.024,23.224 L131.024,27.756 L138.636,27.756 L138.636,30 L128.252,30 Z M148.448,22.124 L154.344,30 L151.044,30 L146.842,24.192 L142.618,30 L139.318,30 L145.236,22.102 L139.538,14.49 L142.838,14.49 L146.842,20.056 L150.868,14.49 L154.168,14.49 L148.448,22.124 Z" id="TomoDEX" fill="#FFFFFF" fill-rule="nonzero"></path>
                <mask id="mask-2" fill="white">
                    <use xlink:href="#path-1"></use>
                </mask>
                <use id="Clip-18" stroke="#00E8B4" stroke-width="0.5" fill="#00E8B4" xlink:href="#path-1"></use>
            </g>
        </g>
    </g>
</svg>