<svg xmlns="http://www.w3.org/2000/svg" viewBox="0 0 1819.28 452.16"><defs><style>.cls-1{fill:#fff;}.cls-2{fill:#00e8b5;}</style></defs><title>Asset 86</title><g id="Layer_2" data-name="Layer 2"><g id="Layer_1-2" data-name="Layer 1"><path class="cls-1" d="M627.24,450V293.94H567.57V259.65H729v34.29H669.36V450Z"/><path class="cls-1" d="M753.06,443.66a59.49,59.49,0,0,1-24.57-24q-8.65-15.51-8.64-36.58t8.64-36.58a58.69,58.69,0,0,1,24.57-23.9q15.93-8.37,37-8.37t37,8.37a58.86,58.86,0,0,1,24.57,23.9Q860.25,362,860.25,383t-8.64,36.58a59.67,59.67,0,0,1-24.57,24q-15.94,8.5-37,8.5T753.06,443.66ZM819.75,383q0-19.17-7.7-28.62t-22-9.45q-29.71,0-29.7,38.07t29.7,38.07Q819.75,421.11,819.75,383Z"/><path class="cls-1" d="M1082.19,328q11.07,13.77,11.07,42.12V450h-40.77V371.43q0-13.5-4.19-19.44t-14.17-5.94q-11.61,0-18.09,8.1t-6.48,22.68V450H968.79V371.43q0-13.5-4.19-19.44t-14.17-5.94q-11.61,0-18.09,8.1t-6.48,22.68V450H885.09V317.43h39.69v17.82a41.38,41.38,0,0,1,16.6-15.66,51.08,51.08,0,0,1,23.9-5.4q29.41,0,39.42,24.57a47.5,47.5,0,0,1,18.09-18,51,51,0,0,1,25.65-6.61Q1071.12,314.19,1082.19,328Z"/><path class="cls-1" d="M1150.76,443.66a59.52,59.52,0,0,1-24.56-24q-8.65-15.51-8.65-36.58t8.65-36.58a58.72,58.72,0,0,1,24.56-23.9q15.93-8.37,37-8.37t37,8.37a58.88,58.88,0,0,1,24.58,23.9Q1257.95,362,1258,383t-8.63,36.58a59.69,59.69,0,0,1-24.58,24q-15.93,8.5-37,8.5T1150.76,443.66ZM1217.45,383q0-19.17-7.69-28.62t-22-9.45q-29.7,0-29.7,38.07t29.7,38.07Q1217.45,421.11,1217.45,383Z"/><path class="cls-1" d="M1286,259.65h74q31,0,53.46,11.34a79.18,79.18,0,0,1,34.29,32.67q11.88,21.33,11.88,51t-11.74,51.17a78.22,78.22,0,0,1-34.16,32.8Q1391.33,450,1360,450h-74ZM1357,416q60.75,0,60.75-61.29,0-61-60.75-61h-28.89V416Z"/><path class="cls-1" d="M1492,450V259.65h131.22v32.67h-90.18v44.55h84.78v32.67h-84.78v47.79h90.18V450Z"/><path class="cls-1" d="M1746.65,353.61,1819.28,450h-49.14l-47.25-65.61L1675.37,450H1626.5l72.63-96.39-70.74-94h48.87l45.63,63.18,45.9-63.18h48.87Z"/><polygon class="cls-1" points="160.71 0 160.71 450 241.07 450 241.07 80.36 160.71 0"/><polygon class="cls-2" points="321.43 160.71 321.43 450 401.79 450 401.79 241.07 321.43 160.71"/><polygon class="cls-1" points="0 80.36 0 450 80.36 450 80.36 160.71 0 80.36"/></g></g></svg>